<svg xmlns="http://www.w3.org/2000/svg" viewBox="0 0 512 511.988"><title>インターネットのアイコン</title><path d="M255.994.006C114.607.013.012,114.612,0,256,.012,397.387,114.607,511.986,255.994,511.994c141.4-.008,256-114.607,256.006-255.994C511.992,114.612,397.393.013,255.994.006ZM97.607,97.612a224.122,224.122,0,0,1,83.455-52.725C165.879,63.262,153.222,86.793,143.305,114H82.772C87.452,108.308,92.4,102.824,97.607,97.612ZM65.612,138H135.6c-9.008,31.929-14.41,67.834-15.363,106H32.327A222.508,222.508,0,0,1,65.612,138Zm0,235.994A222.508,222.508,0,0,1,32.327,268h87.991c.961,38.124,6.21,74.092,15.206,106H65.612Zm32,40.389c-5.211-5.211-10.156-10.7-14.836-16.39h60.573a285.618,285.618,0,0,0,14.312,33.21A203.01,203.01,0,0,0,181,467.1,224.1,224.1,0,0,1,97.607,414.386ZM244,479.667q-5.619-.294-11.164-.86a78.564,78.564,0,0,1-17.5-10.961c-17.632-14.359-33.976-38.671-46.4-69.85H244v81.671ZM244,374H160.562c-9.477-31.171-15.316-67.311-16.328-106H244V374Zm0-130H144.31c1.008-38.71,6.875-74.819,16.359-106H244V244Zm0-130H169.047c3.109-7.79,6.367-15.312,9.934-22.195,10.64-20.625,23.17-36.89,36.354-47.656a78.549,78.549,0,0,1,17.5-10.96q5.542-.573,11.164-.859V114Zm202.394,24a222.508,222.508,0,0,1,33.281,106H391.682c-.961-38.124-6.21-74.092-15.21-106Zm-32-40.391c5.211,5.211,10.156,10.7,14.836,16.391H368.652a286.477,286.477,0,0,0-14.312-33.21A203.044,203.044,0,0,0,330.993,44.9,224.232,224.232,0,0,1,414.393,97.612ZM268,32.333q5.619.293,11.16.859a79.014,79.014,0,0,1,17.5,10.96c17.636,14.359,33.976,38.671,46.4,69.85H268ZM268,138h83.436c9.476,31.171,15.32,67.31,16.328,106H268Zm0,130h99.685c-1.007,38.71-6.874,74.818-16.359,106H268Zm28.663,199.846a78.946,78.946,0,0,1-17.5,10.961q-5.536.563-11.16.86V398h74.951c-3.109,7.789-6.367,15.312-9.933,22.195C322.376,440.816,309.845,457.081,296.661,467.846Zm117.732-53.46a224.085,224.085,0,0,1-83.459,52.725c15.187-18.375,27.835-41.9,37.757-69.115h60.538C424.548,403.692,419.6,409.176,414.393,414.386Zm32-40.389h-70c9.008-31.929,14.414-67.842,15.367-106h87.912A222.5,222.5,0,0,1,446.392,374Z" transform="translate(0 -0.006)"/></svg>