<?xml version="1.0" encoding="utf-8"?>
<!-- Generator: Adobe Illustrator 22.1.0, SVG Export Plug-In . SVG Version: 6.00 Build 0)  -->
<svg version="1.1" id="レイヤー_1" xmlns="http://www.w3.org/2000/svg" xmlns:xlink="http://www.w3.org/1999/xlink" x="0px"
	 y="0px" viewBox="0 0 186.8 37.5" style="enable-background:new 0 0 186.8 37.5;" xml:space="preserve">
<style type="text/css">
	.st0{display:none;}
	.st1{fill:#FFFFFF;}
</style>
<rect x="-4.7" y="-94.4" class="st0" width="254.2" height="217.6"/>
<path class="st1" d="M168,37.5H18.8C8.4,37.5,0,29.1,0,18.8S8.4,0,18.8,0H168c10.3,0,18.8,8.4,18.8,18.8S178.3,37.5,168,37.5z
	 M18.8,0.8c-9.9,0-18,8.1-18,18s8.1,18,18,18H168c9.9,0,18-8.1,18-18s-8.1-18-18-18C168,0.8,18.8,0.8,18.8,0.8z"/>
<polygon class="st1" points="169.3,24 168.6,23.3 173.3,18.6 168.9,14.2 169.6,13.5 174.7,18.6 "/>
<g>
	<path class="st1" d="M83.6,24.4h-1v-8.3l0.1-2.3l-4.1,10.6h-0.9l-4.1-10.6h0l0.1,2.3v8.3h-0.9V12.9h1.5l3.3,8.3l0.6,2h0l0.6-2
		l3.3-8.4h1.5V24.4z"/>
	<path class="st1" d="M95.7,20.1c0,2.8-1.6,4.5-4.2,4.5c-2.6,0-4.2-1.7-4.2-4.5c0-2.8,1.6-4.5,4.2-4.5
		C94.1,15.5,95.7,17.2,95.7,20.1z M88.3,20.1c0,2.3,1.2,3.7,3.2,3.7c2,0,3.2-1.4,3.2-3.7c0-2.3-1.2-3.7-3.2-3.7
		C89.5,16.4,88.3,17.8,88.3,20.1z"/>
	<path class="st1" d="M104.2,15.8l-0.2,0.9c-0.2-0.2-0.6-0.3-1.1-0.3c-1.3,0-2.5,1.2-2.5,3.1v4.9h-1v-8.7h0.8l0.1,1.7
		c0.5-1.2,1.4-1.9,2.8-1.9C103.5,15.5,103.9,15.6,104.2,15.8z"/>
	<path class="st1" d="M114,20.5h-6.9c0.1,2.1,1.3,3.3,3.1,3.3c1.3,0,2.4-0.6,2.8-1.5l0.8,0.4c-0.6,1.2-1.8,2-3.6,2
		c-2.6,0-4.1-1.7-4.1-4.5c0-2.8,1.5-4.5,4.1-4.5c2.4,0,3.8,1.8,3.8,4.3C114,20.1,114,20.3,114,20.5z M107.2,19.6h5.9
		c-0.1-2-1.2-3.2-2.9-3.2C108.4,16.4,107.3,17.6,107.2,19.6z"/>
</g>
</svg>
